{
    "asset" : {
        "generator" : "Khronos glTF Blender I/O v1.6.16",
        "version" : "2.0"
    },
    "scene" : 0,
    "scenes" : [
        {
            "name" : "Scene",
            "nodes" : [
                23
            ]
        }
    ],
    "nodes" : [
        {
            "name" : "ForearmL",
            "rotation" : [
                0.027264496311545372,
                3.714808460841823e-10,
                -2.7614046604895748e-09,
                0.9996283650398254
            ],
            "scale" : [
                1,
                0.9999999403953552,
                0.9999999403953552
            ],
            "translation" : [
                3.557429240075294e-09,
                0.35556289553642273,
                -6.67176678348369e-08
            ]
        },
        {
            "children" : [
                0
            ],
            "name" : "HumerusL",
            "rotation" : [
                0.08103522658348083,
                -0.0006135734729468822,
                0.02179926633834839,
                0.9964726567268372
            ],
            "scale" : [
                0.9999999403953552,
                1,
                1.0000001192092896
            ],
            "translation" : [
                -1.206719724144989e-09,
                0.23070545494556427,
                -2.7225769372307695e-07
            ]
        },
        {
            "children" : [
                1
            ],
            "name" : "CalvicleL",
            "rotation" : [
                -0.7798240184783936,
                -0.015420526266098022,
                -0.015420514158904552,
                0.6256189942359924
            ],
            "scale" : [
                0.9999998807907104,
                1,
                1
            ],
            "translation" : [
                -2.6567614774819504e-09,
                0.1499999761581421,
                2.906530305324395e-08
            ]
        },
        {
            "name" : "ForearmR",
            "rotation" : [
                3.6383056567501626e-07,
                -0.9996041655540466,
                0.028135525062680244,
                1.2825811609218363e-05
            ],
            "scale" : [
                1,
                0.9999997019767761,
                1
            ],
            "translation" : [
                1.0149392437597271e-09,
                0.3555629551410675,
                -7.988762718014186e-08
            ]
        },
        {
            "children" : [
                3
            ],
            "name" : "HumerusR",
            "rotation" : [
                -0.08373669534921646,
                -0.19483517110347748,
                0.0054847002029418945,
                0.9772396683692932
            ],
            "scale" : [
                1,
                1,
                1.0000001192092896
            ],
            "translation" : [
                9.74753167071185e-10,
                0.23070548474788666,
                -2.918067121271406e-09
            ]
        },
        {
            "children" : [
                4
            ],
            "name" : "ClavicleR",
            "rotation" : [
                0.7677044868469238,
                0.1378149539232254,
                0.1378149688243866,
                0.6104456186294556
            ],
            "scale" : [
                0.9999999403953552,
                0.9999998807907104,
                0.9999999403953552
            ],
            "translation" : [
                -4.664774166940333e-08,
                0.15000008046627045,
                2.5835795725015487e-08
            ]
        },
        {
            "name" : "Neck3",
            "rotation" : [
                5.7658626137491176e-12,
                -3.5527471366019175e-15,
                -2.886421892380744e-15,
                1
            ],
            "translation" : [
                -3.469446951953614e-17,
                0.10000026971101761,
                -7.098620494957748e-16
            ]
        },
        {
            "children" : [
                6
            ],
            "name" : "Neck2",
            "rotation" : [
                -1.0648228826459771e-11,
                -3.552560365837048e-15,
                -2.6639800290034505e-15,
                1
            ],
            "translation" : [
                -1.505740083026987e-15,
                0.10000026971101761,
                -4.934657249608312e-16
            ]
        },
        {
            "children" : [
                7
            ],
            "name" : "Neck1",
            "rotation" : [
                2.4015953115075206e-10,
                -3.580393021450877e-15,
                4.045431101218355e-09,
                1
            ],
            "translation" : [
                -1.3649713581642686e-09,
                0.15000009536743164,
                -5.117309316771861e-16
            ]
        },
        {
            "children" : [
                2,
                5,
                8
            ],
            "name" : "Spine4",
            "rotation" : [
                0.0011074222857132554,
                -0.03325951099395752,
                -0.03325950726866722,
                0.998892605304718
            ],
            "scale" : [
                1,
                0.9999998211860657,
                1
            ],
            "translation" : [
                6.667602470145084e-09,
                0.15033282339572906,
                -8.281979546609364e-10
            ]
        },
        {
            "children" : [
                9
            ],
            "name" : "Spine3",
            "rotation" : [
                -0.00110742321703583,
                0.03325951099395752,
                0.03325950354337692,
                0.998892605304718
            ],
            "scale" : [
                1,
                0.9999999403953552,
                0.9999999403953552
            ],
            "translation" : [
                1.1623036755281646e-08,
                0.14999985694885254,
                -4.801171127333248e-10
            ]
        },
        {
            "children" : [
                10
            ],
            "name" : "Spine2",
            "rotation" : [
                -6.38508534933635e-09,
                1.4901162970204496e-08,
                2.2351741790771484e-08,
                1
            ],
            "translation" : [
                -7.450536854136658e-10,
                0.15000003576278687,
                -1.1102230246251565e-16
            ]
        },
        {
            "children" : [
                11
            ],
            "name" : "Spine1",
            "rotation" : [
                0.0760008916258812,
                -0.26499950885772705,
                -0.26499953866004944,
                0.9239991307258606
            ],
            "scale" : [
                0.9999999403953552,
                1,
                0.9999998807907104
            ],
            "translation" : [
                -8.450400379445e-09,
                0.09433981031179428,
                2.767674267545317e-08
            ]
        },
        {
            "children" : [
                12
            ],
            "name" : "Root",
            "rotation" : [
                -0.0760008916258812,
                0.26499947905540466,
                0.26499947905540466,
                0.9239991903305054
            ],
            "scale" : [
                0.9999999403953552,
                0.9999999403953552,
                0.9999999403953552
            ],
            "translation" : [
                3.1590399629521926e-08,
                0.8699999451637268,
                -1.1918775301360631e-15
            ]
        },
        {
            "name" : "FootR",
            "rotation" : [
                0.4258297085762024,
                0.4944678544998169,
                -0.49446848034858704,
                0.5741702914237976
            ],
            "scale" : [
                1.0000001192092896,
                1.0000001192092896,
                1.0000001192092896
            ],
            "translation" : [
                1.3308903978881403e-09,
                0.3999985158443451,
                1.904573165845136e-09
            ]
        },
        {
            "children" : [
                14
            ],
            "name" : "CalfR",
            "rotation" : [
                0.10911718010902405,
                -1.9618942914689796e-08,
                1.6673059377581012e-08,
                0.9940289855003357
            ],
            "translation" : [
                -1.3322676295501878e-15,
                0.4609755575656891,
                2.2351741790771484e-08
            ]
        },
        {
            "children" : [
                15
            ],
            "name" : "FemurR",
            "rotation" : [
                0.6995453238487244,
                1.8628716702551174e-07,
                -1.4343846999054222e-07,
                0.7145882844924927
            ],
            "scale" : [
                1,
                1,
                0.9999999403953552
            ],
            "translation" : [
                -1.270128784319844e-14,
                0.15297052264213562,
                9.947198620352538e-09
            ]
        },
        {
            "children" : [
                16
            ],
            "name" : "HipR",
            "rotation" : [
                0.633989155292511,
                -1.6283746617773431e-07,
                -1.6283796355764935e-07,
                0.773341953754425
            ],
            "scale" : [
                1,
                0.9999999403953552,
                1.000003457069397
            ],
            "translation" : [
                -6.762724285768135e-16,
                0.8700000047683716,
                -1.4611791776530936e-08
            ]
        },
        {
            "name" : "FootL",
            "rotation" : [
                0.42582982778549194,
                0.49446818232536316,
                -0.49446824193000793,
                0.5741702318191528
            ],
            "scale" : [
                1,
                1.0000001192092896,
                1
            ],
            "translation" : [
                1.7197687718351062e-10,
                0.3999999761581421,
                1.1052224690999424e-09
            ]
        },
        {
            "children" : [
                18
            ],
            "name" : "CalfL",
            "rotation" : [
                -0.10911677032709122,
                1.5737757763645277e-08,
                -1.8683715907741316e-08,
                0.9940290451049805
            ],
            "translation" : [
                4.440892098500626e-16,
                0.460977166891098,
                -7.450580596923828e-09
            ]
        },
        {
            "children" : [
                19
            ],
            "name" : "FemurL",
            "rotation" : [
                -0.6995455622673035,
                1.479686595473595e-08,
                -1.2450300346245058e-08,
                0.7145879864692688
            ],
            "translation" : [
                -3.196455432833605e-15,
                0.152970552444458,
                6.081985048922434e-08
            ]
        },
        {
            "children" : [
                20
            ],
            "name" : "HipL",
            "rotation" : [
                -0.6339889764785767,
                1.612409228357592e-08,
                1.612409405993276e-08,
                0.7733420729637146
            ],
            "scale" : [
                1,
                1,
                0.9999999403953552
            ],
            "translation" : [
                -8.881784197001252e-16,
                0.8700000047683716,
                4.0308977876711695e-23
            ]
        },
        {
            "mesh" : 0,
            "name" : "Frank",
            "skin" : 0
        },
        {
            "children" : [
                22,
                13,
                17,
                21
            ],
            "name" : "Armature"
        }
    ],
    "materials" : [
        {
            "doubleSided" : true,
            "name" : "Material",
            "pbrMetallicRoughness" : {
                "baseColorFactor" : [
                    0.800000011920929,
                    0.800000011920929,
                    0.800000011920929,
                    1
                ],
                "metallicFactor" : 0,
                "roughnessFactor" : 0.4000000059604645
            }
        }
    ],
    "meshes" : [
        {
            "name" : "Frank",
            "primitives" : [
                {
                    "attributes" : {
                        "POSITION" : 0,
                        "NORMAL" : 1,
                        "TEXCOORD_0" : 2,
                        "JOINTS_0" : 3,
                        "WEIGHTS_0" : 4
                    },
                    "indices" : 5,
                    "material" : 0
                }
            ]
        }
    ],
    "skins" : [
        {
            "inverseBindMatrices" : 6,
            "joints" : [
                13,
                12,
                11,
                10,
                9,
                2,
                1,
                0,
                5,
                4,
                3,
                8,
                7,
                6,
                17,
                16,
                15,
                14,
                21,
                20,
                19,
                18
            ],
            "name" : "Armature"
        }
    ],
    "accessors" : [
        {
            "bufferView" : 0,
            "componentType" : 5126,
            "count" : 1658,
            "max" : [
                0.22004996240139008,
                2.0269365310668945,
                0.9675806164741516
            ],
            "min" : [
                -0.15799276530742645,
                0.0009493827819824219,
                -0.9675806164741516
            ],
            "type" : "VEC3"
        },
        {
            "bufferView" : 1,
            "componentType" : 5126,
            "count" : 1658,
            "type" : "VEC3"
        },
        {
            "bufferView" : 2,
            "componentType" : 5126,
            "count" : 1658,
            "type" : "VEC2"
        },
        {
            "bufferView" : 3,
            "componentType" : 5121,
            "count" : 1658,
            "type" : "VEC4"
        },
        {
            "bufferView" : 4,
            "componentType" : 5126,
            "count" : 1658,
            "type" : "VEC4"
        },
        {
            "bufferView" : 5,
            "componentType" : 5123,
            "count" : 2508,
            "type" : "SCALAR"
        },
        {
            "bufferView" : 6,
            "componentType" : 5126,
            "count" : 22,
            "type" : "MAT4"
        }
    ],
    "bufferViews" : [
        {
            "buffer" : 0,
            "byteLength" : 19896,
            "byteOffset" : 0
        },
        {
            "buffer" : 0,
            "byteLength" : 19896,
            "byteOffset" : 19896
        },
        {
            "buffer" : 0,
            "byteLength" : 13264,
            "byteOffset" : 39792
        },
        {
            "buffer" : 0,
            "byteLength" : 6632,
            "byteOffset" : 53056
        },
        {
            "buffer" : 0,
            "byteLength" : 26528,
            "byteOffset" : 59688
        },
        {
            "buffer" : 0,
            "byteLength" : 5016,
            "byteOffset" : 86216
        },
        {
            "buffer" : 0,
            "byteLength" : 1408,
            "byteOffset" : 91232
        }
    ],
    "buffers" : [
        {
            "byteLength" : 92640,
            "uri" : "data:application/octet-stream;base64,"
        }
    ]
}
