{
    "asset" : {
        "generator" : "Khronos glTF Blender I/O v1.6.16",
        "version" : "2.0"
    },
    "scene" : 0,
    "scenes" : [
        {
            "name" : "Scene",
            "nodes" : [
                0
            ]
        }
    ],
    "nodes" : [
        {
            "mesh" : 0,
            "name" : "Cube"
        }
    ],
    "materials" : [
        {
            "doubleSided" : true,
            "name" : "Material",
            "normalTexture" : {
                "index" : 0
            },
            "pbrMetallicRoughness" : {
                "baseColorTexture" : {
                    "index" : 1
                },
                "metallicFactor" : 0,
                "roughnessFactor" : 0.5
            }
        }
    ],
    "meshes" : [
        {
            "name" : "Cube",
            "primitives" : [
                {
                    "attributes" : {
                        "POSITION" : 0,
                        "NORMAL" : 1,
                        "TEXCOORD_0" : 2
                    },
                    "indices" : 3,
                    "material" : 0
                }
            ]
        }
    ],
    "textures" : [
        {
            "sampler" : 0,
            "source" : 0
        },
        {
            "sampler" : 0,
            "source" : 1
        }
    ],
    "images" : [
        {
            "bufferView" : 4,
            "mimeType" : "image/png",
            "name" : "freeNormal"
        },
        {
            "bufferView" : 5,
            "mimeType" : "image/png",
            "name" : "testTexture"
        }
    ],
    "accessors" : [
        {
            "bufferView" : 0,
            "componentType" : 5126,
            "count" : 7473,
            "max" : [
                753.9443359375,
                166.68994140625,
                750
            ],
            "min" : [
                -746.0556640625,
                -33.31006622314453,
                -750
            ],
            "type" : "VEC3"
        },
        {
            "bufferView" : 1,
            "componentType" : 5126,
            "count" : 7473,
            "type" : "VEC3"
        },
        {
            "bufferView" : 2,
            "componentType" : 5126,
            "count" : 7473,
            "type" : "VEC2"
        },
        {
            "bufferView" : 3,
            "componentType" : 5123,
            "count" : 25578,
            "type" : "SCALAR"
        }
    ],
    "bufferViews" : [
        {
            "buffer" : 0,
            "byteLength" : 89676,
            "byteOffset" : 0
        },
        {
            "buffer" : 0,
            "byteLength" : 89676,
            "byteOffset" : 89676
        },
        {
            "buffer" : 0,
            "byteLength" : 59784,
            "byteOffset" : 179352
        },
        {
            "buffer" : 0,
            "byteLength" : 51156,
            "byteOffset" : 239136
        },
        {
            "buffer" : 0,
            "byteLength" : 402131,
            "byteOffset" : 290292
        },
        {
            "buffer" : 0,
            "byteLength" : 293839,
            "byteOffset" : 692424
        }
    ],
    "samplers" : [
        {
            "magFilter" : 9729,
            "minFilter" : 9987
        }
    ],
    "buffers" : [
        {
            "byteLength" : 986264,
            "uri" : "data:application/octet-stream;base64,"
        }
    ]
}
