{
    "asset" : {
        "generator" : "Khronos glTF Blender I/O v1.6.16",
        "version" : "2.0"
    },
    "scene" : 0,
    "scenes" : [
        {
            "name" : "Scene",
            "nodes" : [
                0
            ]
        }
    ],
    "nodes" : [
        {
            "mesh" : 0,
            "name" : "Cube"
        }
    ],
    "materials" : [
        {
            "doubleSided" : true,
            "name" : "Material.001",
            "normalTexture" : {
                "index" : 0
            },
            "pbrMetallicRoughness" : {
                "baseColorTexture" : {
                    "index" : 1
                },
                "metallicFactor" : 0,
                "roughnessFactor" : 0.5
            }
        }
    ],
    "meshes" : [
        {
            "name" : "Cube.001",
            "primitives" : [
                {
                    "attributes" : {
                        "POSITION" : 0,
                        "NORMAL" : 1,
                        "TANGENT" : 2,
                        "TEXCOORD_0" : 3
                    },
                    "indices" : 4,
                    "material" : 0
                }
            ]
        }
    ],
    "textures" : [
        {
            "sampler" : 0,
            "source" : 0
        },
        {
            "sampler" : 0,
            "source" : 1
        }
    ],
    "images" : [
        {
            "bufferView" : 5,
            "mimeType" : "image/png",
            "name" : "freeNormal"
        },
        {
            "bufferView" : 6,
            "mimeType" : "image/png",
            "name" : "testTexture"
        }
    ],
    "accessors" : [
        {
            "bufferView" : 0,
            "componentType" : 5126,
            "count" : 7375,
            "max" : [
                262.74920654296875,
                77.13335418701172,
                260
            ],
            "min" : [
                -260,
                -15.413749694824219,
                -260
            ],
            "type" : "VEC3"
        },
        {
            "bufferView" : 1,
            "componentType" : 5126,
            "count" : 7375,
            "type" : "VEC3"
        },
        {
            "bufferView" : 2,
            "componentType" : 5126,
            "count" : 7375,
            "type" : "VEC4"
        },
        {
            "bufferView" : 3,
            "componentType" : 5126,
            "count" : 7375,
            "type" : "VEC2"
        },
        {
            "bufferView" : 4,
            "componentType" : 5123,
            "count" : 25578,
            "type" : "SCALAR"
        }
    ],
    "bufferViews" : [
        {
            "buffer" : 0,
            "byteLength" : 88500,
            "byteOffset" : 0
        },
        {
            "buffer" : 0,
            "byteLength" : 88500,
            "byteOffset" : 88500
        },
        {
            "buffer" : 0,
            "byteLength" : 118000,
            "byteOffset" : 177000
        },
        {
            "buffer" : 0,
            "byteLength" : 59000,
            "byteOffset" : 295000
        },
        {
            "buffer" : 0,
            "byteLength" : 51156,
            "byteOffset" : 354000
        },
        {
            "buffer" : 0,
            "byteLength" : 402131,
            "byteOffset" : 405156
        },
        {
            "buffer" : 0,
            "byteLength" : 293839,
            "byteOffset" : 807288
        }
    ],
    "samplers" : [
        {
            "magFilter" : 9729,
            "minFilter" : 9987
        }
    ],
    "buffers" : [
        {
            "byteLength" : 1101128,
            "uri" : "data:application/octet-stream;base64,"
        }
    ]
}